PathFileType	4	(X/Y/Z)	s04c0401.trc
DataRate	CameraRate	NumFrames	NumMarkers	Units	OrigDataRate	OrigDataStartFrame	OrigNumFrames
200	200	6	50	mm	200	1750	2000
Frame#	Time	racr			lacr			c7			jug			rlel			rdr			llel			ldr			s2			lic			ric			lasi			rasi			rpsi			lpsi			rgt			lgt			rth1			rth2			rth3			rth4			rlfc			rmfc			rsh1			rsh2			rsh3			rsh4			rlmal			rmmal			rcal			rtoe			rmt5			lth1			lth2			lth4			lth3			llfc			lmfc			lsh1			lsh2			lsh3			lsh4			llmal			lmmal			lcal			ltoe			lmt5			SBIKE			LBIKE			RBIKE			
		X1	Y1	Z1	X2	Y2	Z2	X3	Y3	Z3	X4	Y4	Z4	X5	Y5	Z5	X6	Y6	Z6	X7	Y7	Z7	X8	Y8	Z8	X9	Y9	Z9	X10	Y10	Z10	X11	Y11	Z11	X12	Y12	Z12	X13	Y13	Z13	X14	Y14	Z14	X15	Y15	Z15	X16	Y16	Z16	X17	Y17	Z17	X18	Y18	Z18	X19	Y19	Z19	X20	Y20	Z20	X21	Y21	Z21	X22	Y22	Z22	X23	Y23	Z23	X24	Y24	Z24	X25	Y25	Z25	X26	Y26	Z26	X27	Y27	Z27	X28	Y28	Z28	X29	Y29	Z29	X30	Y30	Z30	X31	Y31	Z31	X32	Y32	Z32	X33	Y33	Z33	X34	Y34	Z34	X35	Y35	Z35	X36	Y36	Z36	X37	Y37	Z37	X38	Y38	Z38	X39	Y39	Z39	X40	Y40	Z40	X41	Y41	Z41	X42	Y42	Z42	X43	Y43	Z43	X44	Y44	Z44	X45	Y45	Z45	X46	Y46	Z46	X47	Y47	Z47	X48	Y48	Z48	X49	Y49	Z49	X50	Y50	Z50	
1750	8.7500	810.265476	1285.564124	-147.998451	786.090790	1257.685592	-471.185063	814.275009	1341.572500	-313.635296	752.908019	1198.059263	-305.532440	560.292367	1157.512286	25.067751	699.583461	936.735302	-79.407417	552.997997	1142.929074	-622.447380	683.352214	940.651118	-511.526620	216.668961	1240.504116	-258.206477	353.509005	1203.196712	-432.013082	382.336608	1222.340219	-115.261891	382.371930	1144.447324	-392.658766	0.000000	0.000000	-0.000000	258.555983	1279.009833	-222.824926	253.361027	1276.341431	-298.582842	335.890974	1182.757615	-82.328204	266.787294	1121.659666	-442.018403	439.146177	1069.316671	-90.693233	513.772681	1026.631270	-108.854256	560.426145	955.234521	-113.499394	531.057257	1049.986895	-133.401136	636.246377	835.399930	-154.015355	601.592842	827.385338	-263.756200	530.929497	782.456010	-121.318655	459.976950	725.741365	-130.677938	374.130740	716.569299	-128.500845	473.235663	700.780216	-157.635940	241.483663	641.612766	-127.671992	253.292869	637.653988	-214.375657	164.056607	668.008063	-160.399031	368.528886	446.653041	-174.536607	309.088015	475.784737	-113.621810	267.742029	1030.405592	-466.928158	301.274379	951.787941	-482.989075	337.446456	957.887058	-484.526587	292.697539	863.066313	-483.127063	305.681243	694.837549	-475.409325	358.386564	660.219783	-375.708530	265.115129	570.404831	-490.839194	260.404539	485.197976	-473.164214	211.486045	411.990592	-461.771425	293.809537	477.447061	-452.777989	161.741792	272.470289	-446.267441	170.150666	276.102095	-358.690452	92.181572	287.684164	-399.617863	347.609768	126.070753	-420.326019	264.400044	129.265850	-476.845713	-185.695409	934.777849	-286.567605	-17.563409	79.348894	-485.494367	-17.451346	79.435405	-84.837988	
1751	8.7550	809.444792	1286.768614	-148.902686	785.398523	1258.420131	-471.749204	813.274172	1342.534746	-314.214358	752.145607	1198.984405	-306.111075	560.381408	1157.768227	24.835959	699.585677	936.734006	-79.353623	552.722441	1142.546277	-623.086674	683.112367	940.585023	-511.334028	215.926550	1240.289639	-258.133199	352.465532	1202.806200	-432.086934	381.777209	1222.347348	-115.514397	381.517487	1144.167188	-392.502060	0.000000	0.000000	-0.000000	257.795634	1278.776001	-222.967216	252.391406	1276.048159	-298.751952	335.462296	1182.764447	-82.566439	266.123730	1120.896887	-442.061291	438.677919	1069.210980	-90.764859	513.463806	1026.291664	-108.552794	559.580410	954.589390	-113.494015	530.535832	1049.688218	-133.188512	634.696981	834.134127	-153.324109	600.182309	825.945937	-263.239896	529.160857	781.152932	-120.552913	457.872672	725.195718	-130.261022	371.916309	716.579126	-128.180508	470.935707	700.128760	-157.198867	238.728720	642.594176	-127.496221	250.815413	638.047830	-214.166541	162.061922	670.298143	-160.675018	361.574166	444.252959	-174.497449	302.714236	474.755337	-113.538049	267.795161	1029.347736	-467.064971	301.709880	950.733820	-482.621823	337.916722	956.950022	-483.503625	293.307558	862.017076	-482.736784	306.271384	693.726951	-474.613456	357.930391	659.794679	-374.225836	267.270916	568.947037	-490.205572	262.919430	483.726658	-472.343369	214.499355	410.104807	-461.333212	296.166650	476.224345	-451.531205	165.606376	270.425254	-446.314780	173.713880	274.424309	-358.554792	95.428750	284.548538	-399.778406	353.852010	127.830710	-420.312853	270.690165	129.532631	-476.904312	-185.707313	934.752982	-286.711374	-17.565541	79.321309	-485.508409	-17.464611	79.450648	-84.844894	
1752	8.7600	808.631015	1288.028182	-149.750123	784.603082	1259.009828	-472.345795	812.132881	1343.357260	-315.000915	751.547442	1199.658422	-306.737370	560.392827	1158.007409	24.583293	699.659632	936.711089	-79.250558	552.419453	1142.071115	-623.649658	682.843298	940.497889	-511.085108	215.057551	1239.943037	-258.145658	351.389497	1202.300866	-432.248845	381.182838	1222.333240	-115.867391	380.550259	1143.972660	-392.479860	0.000000	0.000000	-0.000000	257.007157	1278.561544	-223.084606	251.300238	1275.841088	-298.928780	335.049805	1182.696724	-82.784056	265.427710	1120.047352	-442.147181	438.173777	1068.996695	-90.896796	512.755059	1025.832931	-108.460712	558.634162	954.171856	-112.573876	529.884655	1048.947213	-133.420104	633.230149	832.485014	-152.766295	598.673869	824.449798	-262.703469	527.365777	779.950216	-119.813110	455.809474	724.277506	-129.853827	369.751562	716.278649	-127.805438	468.666883	699.329263	-156.823481	236.098064	643.124264	-127.350011	248.402843	638.122007	-213.849404	160.359544	671.975987	-160.570747	354.853372	441.702000	-174.357510	296.554636	473.464678	-113.454168	267.845877	1028.131483	-467.252971	302.257286	949.562030	-482.180803	338.453895	955.865120	-482.460658	294.090886	860.862161	-482.316500	307.268919	692.739590	-473.656928	357.631406	659.346959	-372.750099	269.398099	567.665521	-489.415741	265.477582	482.435591	-471.457367	217.545748	408.485695	-460.823241	298.602871	475.217822	-450.283959	169.364507	268.789647	-446.256618	177.219243	272.895145	-358.279482	98.623963	281.664830	-399.838685	359.888233	129.757528	-420.242022	276.744531	130.039440	-476.924660	-185.704387	934.726016	-286.769971	-17.563978	79.303454	-485.512034	-17.456015	79.430328	-84.849727	
1753	8.7650	807.768514	1289.198701	-150.528909	783.796530	1259.591500	-472.921734	811.089965	1344.261375	-315.618432	750.817364	1200.421027	-307.284023	560.370474	1158.246164	24.271096	699.724412	936.673722	-79.141702	552.095720	1141.552056	-624.117514	682.551580	940.406725	-510.813534	214.200869	1239.682479	-258.159313	350.286423	1201.837414	-432.208556	380.608305	1222.273025	-116.162729	379.678788	1143.717021	-392.472528	0.000000	0.000000	-0.000000	256.202874	1278.290505	-223.325758	250.162514	1275.654562	-299.102843	334.630915	1182.555603	-82.985934	264.710339	1119.062920	-442.261260	437.619147	1068.694704	-90.978288	512.003797	1025.156632	-108.536127	557.637278	953.151678	-112.173991	529.089907	1047.985778	-133.631253	631.567507	830.819138	-151.950612	597.098672	822.825262	-262.133365	525.508570	778.565355	-119.262133	453.678281	723.361408	-129.320151	367.576564	715.596897	-127.397472	466.474882	698.241547	-156.284271	233.564131	643.121044	-127.110986	246.206843	637.686016	-213.420632	158.768251	673.042394	-160.154388	348.259028	439.035086	-174.074901	290.796509	471.973677	-113.486442	267.893451	1026.794902	-467.475058	302.821808	948.399245	-481.860900	339.046866	954.807997	-481.476613	295.022069	859.595151	-481.917029	309.005510	691.760410	-472.521791	357.421380	659.127203	-371.311205	271.655705	566.556553	-488.666915	268.089459	481.421814	-470.515907	220.569607	407.187719	-460.262959	301.130488	474.531510	-449.131165	173.028156	267.354422	-446.099806	180.711356	271.605016	-357.961378	101.774681	279.253998	-399.832159	365.575357	131.788002	-420.188101	282.491264	130.843741	-476.918203	-185.660375	934.715458	-286.719573	-17.556720	79.272121	-485.512504	-17.456809	79.420007	-84.862191	
1754	8.7700	806.846485	1290.542609	-151.322239	782.974167	1260.109731	-473.549941	810.022722	1345.113521	-316.315872	750.080670	1201.206173	-307.833771	560.314777	1158.480143	23.966898	699.775980	936.626085	-78.970135	551.743935	1140.981523	-624.573281	682.269686	940.277964	-510.482363	213.200273	1239.357888	-258.141509	349.121869	1201.474451	-432.358609	380.024019	1222.195366	-116.448062	378.684157	1143.588200	-392.456950	0.000000	0.000000	-0.000000	255.109285	1278.147161	-223.392282	248.943251	1275.543709	-299.250198	334.128294	1182.342866	-83.239763	263.996920	1118.067402	-442.355339	437.027311	1068.196603	-91.000656	511.296700	1024.218159	-108.554180	556.506642	952.137740	-111.988124	528.326864	1046.948923	-133.859220	628.995232	829.465401	-149.963371	595.427891	820.968893	-261.510016	523.550809	777.118175	-118.564918	451.320481	722.135574	-128.949838	365.444846	714.717697	-126.939141	464.300189	697.131933	-155.780628	231.060425	642.720452	-126.824128	244.046372	636.976422	-212.912767	156.814206	673.966695	-160.288206	342.245714	436.513776	-173.723269	285.370400	470.442673	-113.307872	267.973268	1025.435784	-467.702845	303.505409	947.167132	-481.512912	339.735017	953.729585	-480.509935	296.145108	858.308219	-481.620089	310.596658	691.071627	-471.680104	357.492928	658.923629	-369.876235	274.017950	565.884858	-487.861952	270.796395	480.802500	-469.650488	223.517797	406.232655	-459.738092	303.592353	473.999005	-447.829911	176.432453	266.259864	-445.940770	184.127885	270.691033	-357.555106	104.715596	277.052593	-399.689491	370.746017	133.834660	-420.147123	287.712179	131.731601	-476.951568	-185.677200	934.678440	-286.831674	-17.568679	79.267087	-485.519866	-17.462674	79.412316	-84.861074	
1755	8.7750	805.949265	1291.787399	-152.078773	782.099748	1260.583955	-474.164404	808.793691	1346.059354	-316.981394	749.406548	1201.780510	-308.364744	560.212073	1158.671285	23.645110	699.793468	936.609745	-78.836113	551.380873	1140.393126	-624.995496	681.962817	940.220243	-510.137899	212.149513	1239.027905	-258.180074	347.966467	1201.066890	-432.392769	379.323149	1222.067196	-117.243828	377.653878	1143.430843	-392.375256	0.000000	0.000000	-0.000000	254.036754	1277.820536	-223.655001	247.583138	1275.379889	-299.506501	333.592752	1182.073819	-83.487094	263.178715	1117.040725	-442.515856	436.364700	1067.723490	-91.034911	510.379533	1023.325452	-108.408306	555.445146	950.903417	-111.641093	527.427164	1045.709633	-133.980574	627.117387	827.814204	-149.200295	593.629247	819.128984	-260.860672	521.531182	775.550522	-117.903439	449.179718	720.587681	-128.385690	363.280441	713.562789	-126.445102	461.949341	696.000491	-155.000811	228.655277	641.966280	-126.491747	241.706273	636.152320	-212.492238	154.964442	674.366646	-160.060346	337.020016	434.281034	-173.699220	280.501095	468.944923	-113.157490	268.061672	1024.070827	-467.910810	304.276781	946.082544	-481.155559	340.470018	952.898997	-479.514223	297.467164	857.221206	-481.385042	312.558418	690.610721	-470.918266	357.829898	658.916144	-368.616477	276.211192	565.486326	-486.926610	273.388885	480.521381	-468.757736	226.381943	405.708837	-459.162699	306.015939	473.946488	-446.621826	179.670308	265.544515	-445.592056	187.343368	270.133834	-357.079988	107.420033	275.372388	-399.506411	375.380920	135.797477	-420.112628	292.428347	132.698205	-476.958055	-185.672986	934.685267	-286.850638	-17.555237	79.252071	-485.526266	-17.476219	79.400183	-84.862958	
